HIERARCHY
ROOT reference
{
  OFFSET -65.3212 -1.93545 -120.338
  CHANNELS 6 Xposition Yposition Zposition Zrotation Xrotation Yrotation
  JOINT Hips
  {
    OFFSET 0 78.7191 0
    CHANNELS 3 Zrotation Xrotation Yrotation
    JOINT Chest
    {
      OFFSET 0 8.7983 -4.7612
      CHANNELS 3 Zrotation Xrotation Yrotation
      JOINT Chest2
      {
        OFFSET 0 8.0291 0.4195
        CHANNELS 3 Zrotation Xrotation Yrotation
        JOINT Chest3
        {
          OFFSET 0 9.9351 -2.2114
          CHANNELS 3 Zrotation Xrotation Yrotation
          JOINT Neck
          {
            OFFSET 0 22.3885 -0.4656
            CHANNELS 3 Zrotation Xrotation Yrotation
            JOINT Head
            {
              OFFSET -0.0001 12.643 3.4389
              CHANNELS 3 Zrotation Xrotation Yrotation
              End Site
              {
                OFFSET 0.0001 17.6655 0.5274
              }
            }
          }
          JOINT LeftCollar
          {
            OFFSET 2.2603 21.606 7.4023
            CHANNELS 3 Zrotation Xrotation Yrotation
            JOINT LeftShoulder
            {
              OFFSET 13.5163 -1.1332 -5.0146
              CHANNELS 3 Zrotation Xrotation Yrotation
              JOINT LeftElbow
              {
                OFFSET -0.0995 -28.05 -0.2431
                CHANNELS 3 Zrotation Xrotation Yrotation
                JOINT LeftWrist
                {
                  OFFSET 0.0679 -23.3996 -0.1402
                  CHANNELS 3 Zrotation Xrotation Yrotation
                  JOINT LeftFinger1
                  {
                    OFFSET 0.7932 -9.069 2.5189
                    CHANNELS 3 Zrotation Xrotation Yrotation
                    JOINT LeftFinger11
                    {
                      OFFSET -0.8272 -3.3923 0.5977
                      CHANNELS 3 Zrotation Xrotation Yrotation
                      JOINT LeftFinger12
                      {
                        OFFSET -0.5649 -2.3158 0.4082
                        CHANNELS 3 Zrotation Xrotation Yrotation
                        End Site
                        {
                          OFFSET -0.4919 -1.6479 0.2673
                        }
                      }
                    }
                  }
                  JOINT LeftFinger2
                  {
                    OFFSET 0.9159 -9.2044 0.2193
                    CHANNELS 3 Zrotation Xrotation Yrotation
                    JOINT LeftFinger21
                    {
                      OFFSET 0.0117 -4.1944 -0.0248
                      CHANNELS 3 Zrotation Xrotation Yrotation
                      JOINT LeftFinger22
                      {
                        OFFSET 0.0071 -2.3249 -0.0142
                        CHANNELS 3 Zrotation Xrotation Yrotation
                        End Site
                        {
                          OFFSET -0.1475 -2.0882 0.0028
                        }
                      }
                    }
                  }
                  JOINT LeftFinger3
                  {
                    OFFSET 0.6113 -8.7231 -2.0637
                    CHANNELS 3 Zrotation Xrotation Yrotation
                    JOINT LeftFinger31
                    {
                      OFFSET -0.1927 -3.8059 -0.2383
                      CHANNELS 3 Zrotation Xrotation Yrotation
                      JOINT LeftFinger32
                      {
                        OFFSET -0.1091 -2.1688 -0.1362
                        CHANNELS 3 Zrotation Xrotation Yrotation
                        End Site
                        {
                          OFFSET -0.2358 -1.9176 -0.0906
                        }
                      }
                    }
                  }
                  JOINT LeftFinger4
                  {
                    OFFSET -0.6151 -8.0947 -3.5641
                    CHANNELS 3 Zrotation Xrotation Yrotation
                    JOINT LeftFinger41
                    {
                      OFFSET -0.4882 -2.341 -0.6462
                      CHANNELS 3 Zrotation Xrotation Yrotation
                      JOINT LeftFinger42
                      {
                        OFFSET -0.3575 -1.7167 -0.4742
                        CHANNELS 3 Zrotation Xrotation Yrotation
                        End Site
                        {
                          OFFSET -0.4187 -1.5237 -0.3496
                        }
                      }
                    }
                  }
                  JOINT LeftFinger0
                  {
                    OFFSET -1.42 -1.8761 1.4223
                    CHANNELS 3 Zrotation Xrotation Yrotation
                    JOINT LeftFinger01
                    {
                      OFFSET -1.1471 -3.4929 2.6334
                      CHANNELS 3 Zrotation Xrotation Yrotation
                      JOINT LeftFinger02
                      {
                        OFFSET -0.823 -2.3 1.6571
                        CHANNELS 3 Zrotation Xrotation Yrotation
                        End Site
                        {
                          OFFSET -0.5822 -1.6914 1.1582
                        }
                      }
                    }
                  }
                }
              }
            }
          }
          JOINT RightCollar
          {
            OFFSET -2.2603 21.606 7.4023
            CHANNELS 3 Zrotation Xrotation Yrotation
            JOINT RightShoulder
            {
              OFFSET -13.5187 -1.1334 -5.0155
              CHANNELS 3 Zrotation Xrotation Yrotation
              JOINT RightElbow
              {
                OFFSET 0.0994 -28.0499 -0.2431
                CHANNELS 3 Zrotation Xrotation Yrotation
                JOINT RightWrist
                {
                  OFFSET -0.0679 -23.3996 -0.1402
                  CHANNELS 3 Zrotation Xrotation Yrotation
                  JOINT RightFinger1
                  {
                    OFFSET -0.7932 -9.0691 2.5189
                    CHANNELS 3 Zrotation Xrotation Yrotation
                    JOINT RightFinger11
                    {
                      OFFSET 0.8272 -3.3923 0.5977
                      CHANNELS 3 Zrotation Xrotation Yrotation
                      JOINT RightFinger12
                      {
                        OFFSET 0.565 -2.3158 0.4082
                        CHANNELS 3 Zrotation Xrotation Yrotation
                        End Site
                        {
                          OFFSET 0.4919 -1.6479 0.2673
                        }
                      }
                    }
                  }
                  JOINT RightFinger2
                  {
                    OFFSET -0.916 -9.2044 0.2193
                    CHANNELS 3 Zrotation Xrotation Yrotation
                    JOINT RightFinger21
                    {
                      OFFSET -0.0117 -4.1944 -0.0248
                      CHANNELS 3 Zrotation Xrotation Yrotation
                      JOINT RightFinger22
                      {
                        OFFSET -0.0071 -2.3249 -0.0142
                        CHANNELS 3 Zrotation Xrotation Yrotation
                        End Site
                        {
                          OFFSET 0.1475 -2.0882 0.0028
                        }
                      }
                    }
                  }
                  JOINT RightFinger3
                  {
                    OFFSET -0.6113 -8.7231 -2.0637
                    CHANNELS 3 Zrotation Xrotation Yrotation
                    JOINT RightFinger31
                    {
                      OFFSET 0.1927 -3.8059 -0.2383
                      CHANNELS 3 Zrotation Xrotation Yrotation
                      JOINT RightFinger32
                      {
                        OFFSET 0.1091 -2.1688 -0.1362
                        CHANNELS 3 Zrotation Xrotation Yrotation
                        End Site
                        {
                          OFFSET 0.2358 -1.9176 -0.0906
                        }
                      }
                    }
                  }
                  JOINT RightFinger4
                  {
                    OFFSET 0.6151 -8.0947 -3.564
                    CHANNELS 3 Zrotation Xrotation Yrotation
                    JOINT RightFinger41
                    {
                      OFFSET 0.4882 -2.341 -0.6462
                      CHANNELS 3 Zrotation Xrotation Yrotation
                      JOINT RightFinger42
                      {
                        OFFSET 0.3574 -1.7166 -0.4742
                        CHANNELS 3 Zrotation Xrotation Yrotation
                        End Site
                        {
                          OFFSET 0.4187 -1.5237 -0.3496
                        }
                      }
                    }
                  }
                  JOINT RightFinger0
                  {
                    OFFSET 1.4199 -1.8761 1.4221
                    CHANNELS 3 Zrotation Xrotation Yrotation
                    JOINT RightFinger01
                    {
                      OFFSET 1.1472 -3.4929 2.6336
                      CHANNELS 3 Zrotation Xrotation Yrotation
                      JOINT RightFinger02
                      {
                        OFFSET 0.8229 -2.3 1.6571
                        CHANNELS 3 Zrotation Xrotation Yrotation
                        End Site
                        {
                          OFFSET 0.5822 -1.6914 1.1582
                        }
                      }
                    }
                  }
                }
              }
            }
          }
        }
      }
    }
    JOINT RightHip
    {
      OFFSET -9.412 3.9771 -0.7758
      CHANNELS 3 Zrotation Xrotation Yrotation
      JOINT RightKnee
      {
        OFFSET -0.7531 -40.938 0
        CHANNELS 3 Zrotation Xrotation Yrotation
        JOINT RightAnkle
        {
          OFFSET 0 -40.1986 0
          CHANNELS 3 Zrotation Xrotation Yrotation
          JOINT RightToe
          {
            OFFSET 0 -4.4182 9.239
            CHANNELS 3 Zrotation Xrotation Yrotation
            End Site
            {
              OFFSET 0 0 6.1981
            }
          }
        }
      }
    }
    JOINT LeftHip
    {
      OFFSET 9.4119 3.9773 -0.7758
      CHANNELS 3 Zrotation Xrotation Yrotation
      JOINT LeftKnee
      {
        OFFSET 0.7532 -40.9383 0
        CHANNELS 3 Zrotation Xrotation Yrotation
        JOINT LeftAnkle
        {
          OFFSET 0 -40.1986 0
          CHANNELS 3 Zrotation Xrotation Yrotation
          JOINT LeftToe
          {
            OFFSET 0 -4.4182 9.239
            CHANNELS 3 Zrotation Xrotation Yrotation
            End Site
            {
              OFFSET 0 0 6.1981
            }
          }
        }
      }
    }
  }
}
MOTION
Frames:	4
Frame Time:	0.0333333
-38.2961 -3.48357 -49.635 0 0 -0 -0.635286 6.14509 101.884 -0.000413582 -2.15288 1.02169 0.0376423 -4.30542 2.04551 0.0376429 -4.30542 2.04551 -0.570564 13.6137 -8.57514 -6.33082 -1.10016 -8.80724 0.496439 0.856021 -4.26273 4.06429 31.6631 27.2211 -10.375 -22.1194 -10.323 -12.0605 1.40879 41.7644 -1.06029e-005 0.000200264 0.000141775 0.000314349 -5.27237e-005 -0.000245021 -0.000172019 6.77361e-005 2.60073e-005 2.03449 -1.26683 0.222406 -0.167779 -0.876203 0.196072 2.03556 -1.26782 0.222665 2.14057 -6.28967 2.63719 -0.361903 -2.21293 0.750565 4.51009 -3.05777 0.715162 11.4153 -7.35223 2.60519 -0.0648814 -1.73709 1.50185 2.7887 -1.86624 0.506466 0.000267238 2.78322e-006 -0.000386277 -0.000190671 2.27622e-005 0.000277604 -0.000178808 6.43845e-005 7.39609e-006 -44.4584 -1.12588 12.6009 -93.0624 9.49306 -52.0606 -3.50309 -25.8533 -35.2725 5.22911 6.57316 -23.1086 -26.3168 9.86703 9.08439 39.4242 12.0338 -4.97717 38.7304 11.8651 -4.82268 -2.2335 10.2523 5.03864 52.3753 15.6205 -6.40195 44.0892 13.7161 -4.48633 15.0073 7.587 -5.70562 37.2883 13.8497 -2.53195 38.5715 14.2637 -2.77361 23.054 4.37544 -8.90257 30.7535 11.5468 -0.514482 30.685 11.5225 -0.506255 7.91157 0.880224 52.6243 -0.671222 1.52912 0.489025 -4.0243 8.62953 3.04558 -4.16317 -16.8129 45.6067 14.7156 47.0037 -7.84061 -14.3927 -3.17498 -22.4257 25.2849 -3.2546 -8.10979 -22.7016 3.30598 -2.02657 0.441272 -0.000275898 0.617828 8.83521 -2.41804 -5.44511 5.77033 5.01455 -0.811577 
-38.7011 -3.53023 -49.7219 0 0 -0 -0.380414 6.39529 101.376 -0.0433743 -2.17955 1.13862 -0.0434113 -4.35953 2.27805 -0.0434124 -4.35954 2.27803 -0.647863 13.9213 -8.33803 -6.3038 -0.824655 -8.67398 0.514175 0.84231 -4.13513 4.83029 31.6118 27.0662 -9.88031 -21.7432 -10.208 -12.1849 1.65105 41.1084 -0.0468606 0.0880187 -0.0274747 -0.0231315 0.0145489 -0.00150011 -0.0386114 0.0239742 -0.002043 1.99405 -1.23354 0.196163 -0.162832 -0.848084 0.190395 1.9981 -1.24463 0.218192 2.10314 -6.24133 2.62273 -0.356148 -2.17345 0.739206 4.4575 -3.02264 0.705486 11.3086 -7.29953 2.5834 -0.0643301 -1.7094 1.47976 2.74696 -1.83858 0.498236 0.0325174 0.0668641 -0.0168149 -0.0326644 -0.0429948 0.00921565 0.0152952 0.0225298 -0.00450895 -44.4694 -1.13013 12.5849 -93.0678 8.07401 -52.3579 -3.06495 -24.7185 -34.6322 4.63177 5.86865 -22.4275 -26.3168 9.86705 9.08442 39.4242 12.0338 -4.97718 38.7303 11.8651 -4.8227 -2.2335 10.2523 5.03867 52.3753 15.6205 -6.40197 44.0892 13.7161 -4.48631 15.0073 7.587 -5.70561 37.2883 13.8496 -2.53194 38.5715 14.2637 -2.77363 23.054 4.37546 -8.90256 30.7535 11.5468 -0.514469 30.6849 11.5225 -0.506221 7.91155 0.880254 52.6243 -0.671213 1.5291 0.489021 -4.0243 8.6295 3.04557 -4.3444 -16.3529 45.1135 13.4534 46.1464 -7.30234 -14.0746 -4.09033 -23.3176 25.7055 -3.30835 -8.09918 -23.0011 3.10911 -2.08452 0.492923 0.118388 0.838399 9.06928 -2.24707 -5.2157 6.02171 5.23665 -0.92896 
-38.8913 -3.59046 -49.8011 0 0 -0 -0.189495 6.65639 101.062 -0.0822742 -2.21629 1.24161 -0.116543 -4.43383 2.48281 -0.116542 -4.43383 2.48284 -0.675948 14.3594 -8.10398 -6.43215 -0.703218 -8.46516 0.505292 0.828648 -4.06749 5.79106 31.5507 26.799 -10.1342 -21.5617 -10.5425 -12.4227 1.76513 39.9959 -0.181011 0.339839 -0.106747 -0.090375 0.0563611 -0.00505068 -0.148713 0.0924953 -0.00783711 1.87821 -1.13798 0.120941 -0.148881 -0.767556 0.173962 1.89071 -1.17803 0.205353 1.99619 -6.1023 2.58104 -0.339308 -2.06047 0.706264 4.3068 -2.92189 0.677939 11.0029 -7.14821 2.52159 -0.0624626 -1.63022 1.4162 2.62088 -1.74828 0.452989 0.124815 0.25855 -0.0643271 -0.125349 -0.166094 0.0346401 0.0825224 0.109707 -0.0228803 -44.5014 -1.14229 12.5353 -93.3448 6.77576 -52.8138 -2.76832 -23.3813 -34.3994 4.2794 5.37589 -21.1104 -26.3168 9.86705 9.08441 39.4242 12.0338 -4.97718 38.7304 11.8651 -4.82268 -2.23349 10.2523 5.03867 52.3752 15.6205 -6.40194 44.0892 13.7161 -4.48633 15.0073 7.58699 -5.70562 37.2883 13.8496 -2.53192 38.5715 14.2637 -2.77362 23.054 4.37544 -8.90256 30.7535 11.5468 -0.51447 30.6849 11.5225 -0.50622 7.91158 0.880243 52.6243 -0.671197 1.52912 0.489026 -4.0243 8.62951 3.04558 -4.74289 -16.034 44.2662 12.6136 45.2708 -6.91484 -14.1573 -5.82481 -23.9575 25.7559 -3.53168 -7.84212 -23.2939 3.19363 -2.43097 0.520621 -0.000327096 0.992508 9.59179 -2.23981 -4.78485 6.10244 5.54452 -1.00364 
-38.9383 -3.68428 -49.8704 0 0 -0 -0.0394916 7.01807 100.968 -0.142893 -2.23986 1.31861 -0.234376 -4.48243 2.63467 -0.234381 -4.48242 2.63466 -0.669014 14.7985 -8.0033 -6.56163 -0.6455 -8.40255 0.578205 0.82495 -4.18459 6.58789 31.6773 26.5091 -10.7143 -21.9632 -11.2016 -12.9916 1.52714 39.8685 -0.392683 0.73768 -0.231917 -0.196588 0.122419 -0.0105927 -0.322756 0.200759 -0.0167208 1.69519 -0.986942 0.00248247 -0.12679 -0.640465 0.147319 1.72111 -1.07276 0.18538 1.82782 -5.88196 2.51502 -0.312624 -1.88229 0.653155 4.06876 -2.76256 0.634894 10.5205 -6.90846 2.42609 -0.0595826 -1.5055 1.31528 2.43814 -1.63368 0.437978 0.270199 0.5615 -0.139288 -0.271715 -0.36062 0.0744126 0.195105 0.258832 -0.0542823 -44.5529 -1.16081 12.4492 -93.8088 5.66957 -53.385 -2.59549 -21.9928 -34.5382 4.06755 5.09481 -19.2943 -26.3168 9.86705 9.08444 39.4242 12.0338 -4.97714 38.7303 11.8651 -4.82267 -2.2335 10.2523 5.03869 52.3752 15.6205 -6.40193 44.0892 13.7161 -4.48631 15.0073 7.58701 -5.7056 37.2883 13.8496 -2.53191 38.5715 14.2637 -2.77359 23.054 4.37543 -8.90257 30.7534 11.5468 -0.514481 30.6849 11.5225 -0.50621 7.91155 0.880244 52.6243 -0.671182 1.52911 0.489031 -4.0243 8.62949 3.04558 -5.57738 -15.5074 42.7541 11.7799 44.1827 -6.48954 -14.2372 -8.35492 -24.5918 25.319 -3.79043 -7.58487 -23.6646 3.38379 -3.185 0.529803 -0.0282374 1.08066 10.2401 -2.46815 -3.95779 6.0236 5.88137 -1.02764 
